<?xml version="1.0" encoding="iso-8859-1"?>
<!-- Generator: Adobe Illustrator 19.0.0, SVG Export Plug-In . SVG Version: 6.00 Build 0)  -->
<svg version="1.1" id="Capa_1" xmlns="http://www.w3.org/2000/svg" xmlns:xlink="http://www.w3.org/1999/xlink" x="0px" y="0px"
	 viewBox="0 0 512.001 512.001" style="enable-background:new 0 0 512.001 512.001;" xml:space="preserve">
<path style="fill:#FFCC4D;" d="M505.341,258.537c0,138.659-112.199,252.67-252.67,252.67C112.564,511.207,0,397.54,0,258.537
	C0,118.99,113.124,5.866,252.67,5.866C392.477,5.866,505.341,119.229,505.341,258.537z"/>
<g>
	<path style="fill:#AA6432;" d="M48.098,215.437c-5.588,0-10.119,4.53-10.119,10.119v151.767c0,5.588,4.53,10.119,10.119,10.119
		s10.119-4.53,10.119-10.119V225.556C58.216,219.968,53.687,215.437,48.098,215.437z"/>
	<path style="fill:#AA6432;" d="M128.534,168.256c-5.588,0-10.119,4.53-10.119,10.119v198.949c0,5.588,4.53,10.119,10.119,10.119
		c5.588,0,10.119-4.53,10.119-10.119v-198.95C138.653,172.785,134.123,168.256,128.534,168.256z"/>
	<path style="fill:#AA6432;" d="M208.971,127.413c-5.588,0-10.119,4.53-10.119,10.119v239.791c0,5.588,4.53,10.119,10.119,10.119
		c5.588,0,10.119-4.53,10.119-10.119V137.532C219.09,131.944,214.559,127.413,208.971,127.413z"/>
	<path style="fill:#AA6432;" d="M289.407,78.708c-5.588,0-10.119,4.53-10.119,10.119v288.496c0,5.588,4.531,10.119,10.119,10.119
		s10.119-4.53,10.119-10.119V88.827C299.526,83.239,294.995,78.708,289.407,78.708z"/>
	<path style="fill:#AA6432;" d="M369.844,36.212c-5.588,0-10.119,4.53-10.119,10.119v330.993c0,5.588,4.531,10.119,10.119,10.119
		c5.588,0,10.119-4.53,10.119-10.119V46.33C379.962,40.741,375.432,36.212,369.844,36.212z"/>
	<path style="fill:#AA6432;" d="M450.28,2.99c-5.588,0-10.119,4.53-10.119,10.119v364.215c0,5.588,4.531,10.119,10.119,10.119
		c5.588,0,10.119-4.53,10.119-10.119V13.108C460.399,7.52,455.868,2.99,450.28,2.99z"/>
</g>
<path style="fill:#69280F;" d="M505.341,258.537c0,138.663-112.199,252.67-252.67,252.67c-99.835,0-185.694-57.721-226.789-141.189
	c0.686-0.437,1.508-0.686,2.381-0.686h71.842c2.516,0,4.554-2.028,4.554-4.544v-35.646c0-2.516,2.028-4.544,4.554-4.544h71.842
	c2.516,0,4.544-2.038,4.544-4.555v-35.199c0-2.516,2.038-4.544,4.555-4.544h71.842c2.516,0,4.555-2.038,4.555-4.555v-34.907
	c0-2.527,2.028-4.555,4.555-4.555h71.842c2.516,0,4.544-2.038,4.544-4.555v-35.417c0-2.516,2.038-4.555,4.555-4.555h71.842
	c2.516,0,4.554-2.028,4.554-4.554v-35.407c0-2.527,2.038-4.554,4.555-4.554h46.564C496.076,180.84,505.341,218.628,505.341,258.537z
	"/>
<g>
	<path style="fill:#80391B;" d="M472.96,147.243v65.467c0,96.498-78.227,174.725-174.725,174.725H35.344
		c-3.39-5.667-6.541-11.48-9.463-17.417v-0.01c0.686-0.426,1.508-0.676,2.381-0.676h71.853c2.509,0,4.544-2.035,4.544-4.544v-35.646
		c0-2.509,2.035-4.544,4.544-4.544h71.853c2.509,0,4.544-2.035,4.544-4.544v-35.209c0-2.509,2.035-4.544,4.544-4.544h71.853
		c2.515,0,4.555-2.039,4.555-4.555v-34.907c0-2.515,2.039-4.555,4.555-4.555h71.842c2.509,0,4.544-2.034,4.544-4.544v-35.427
		c0-2.515,2.039-4.555,4.555-4.555h71.842c2.515,0,4.554-2.039,4.554-4.554v-35.407c0-2.527,2.038-4.554,4.555-4.554H472.96z"/>
	<path style="fill:#80391B;" d="M23.721,243.133c-3.575,0-7.039-1.898-8.879-5.252c-2.689-4.899-0.896-11.05,4.002-13.738
		l389.151-213.55c11.682-6.41,24.899-9.798,38.222-9.798h55.665c5.588,0,10.119,4.53,10.119,10.119s-4.531,10.119-10.119,10.119
		h-55.665c-9.93,0-19.781,2.525-28.487,7.303L28.58,241.883C27.036,242.73,25.366,243.133,23.721,243.133z"/>
</g>
<path style="fill:#147D73;" d="M374.627,400.782c1.183,2.63,2.339,5.329,3.46,8.107c0.981,2.426,1.93,4.908,2.855,7.448
	c0,0-87.413-27.828-108.9-94.82c-1.909-5.954,3.098-11.579,8.91-10.764c1.025,0.141,1.648,0.397,2.787,0.796
	C306.035,319.497,348.01,341.714,374.627,400.782z"/>
<path style="fill:#1E9682;" d="M374.627,400.782c1.183,2.63,2.339,5.329,3.46,8.107c-32.821-17.082-78.076-48.507-94.349-97.34
	C306.035,319.497,348.01,341.714,374.627,400.782z"/>
<path style="fill:#2D5A5F;" d="M396.669,431.944c-1.659,1.711-4.389,1.752-6.1,0.094L298.5,342.741
	c-1.711-1.659-1.752-4.389-0.094-6.1c1.659-1.711,4.389-1.752,6.1-0.094l92.069,89.297
	C398.286,427.503,398.328,430.234,396.669,431.944z"/>
<path style="fill:#5AC3A5;" d="M382.403,389.611c0.044,3.533,0.023,7.131-0.076,10.799c-0.084,3.205-0.232,6.458-0.434,9.764
	c0,0-84.605-73.997-75.998-159.768c0.765-7.623,9.14-11.494,15.273-7.738c1.082,0.66,1.658,1.252,2.742,2.255
	C345.076,264.755,381.373,310.236,382.403,389.611z"/>
<path style="fill:#82D2AF;" d="M382.403,389.611c0.044,3.533,0.023,7.131-0.076,10.799c-28.525-35.237-64.007-92.666-58.417-155.486
	C345.076,264.755,381.373,310.236,382.403,389.611z"/>
<path style="fill:#3CAF96;" d="M391.934,435.398c-2.699,1.111-5.788-0.178-6.898-2.877l-59.789-145.335
	c-1.111-2.699,0.178-5.788,2.877-6.898s5.788,0.178,6.898,2.877l59.789,145.335C395.922,431.199,394.633,434.287,391.934,435.398z"
	/>
<path style="fill:#147D73;" d="M380.891,400.782c-1.183,2.63-2.339,5.329-3.46,8.107c-0.981,2.426-1.93,4.908-2.855,7.448
	c0,0,87.413-27.828,108.9-94.82c1.909-5.954-3.098-11.579-8.91-10.764c-1.025,0.141-1.648,0.397-2.787,0.796
	C449.483,319.497,407.508,341.714,380.891,400.782z"/>
<path style="fill:#1E9682;" d="M380.891,400.782c-1.183,2.63-2.339,5.329-3.46,8.107c32.821-17.082,78.076-48.507,94.349-97.34
	C449.483,319.497,407.508,341.714,380.891,400.782z"/>
<path style="fill:#2D5A5F;" d="M358.848,431.944c1.659,1.711,4.389,1.752,6.1,0.094l92.069-89.297
	c1.711-1.659,1.752-4.389,0.094-6.1c-1.659-1.711-4.389-1.752-6.1-0.094l-92.069,89.297
	C357.231,427.503,357.19,430.234,358.848,431.944z"/>
<path style="fill:#82D2AF;" d="M383.143,389.611c-0.044,3.533-0.023,7.131,0.076,10.799c0.084,3.205,0.232,6.458,0.434,9.764
	c0,0,84.605-73.997,75.998-159.768c-0.765-7.623-9.14-11.494-15.273-7.738c-1.082,0.66-1.658,1.252-2.742,2.255
	C420.47,264.755,384.173,310.236,383.143,389.611z"/>
<path style="fill:#5AC3A5;" d="M383.143,389.611c-0.044,3.533-0.023,7.131,0.076,10.799c28.525-35.237,64.007-92.666,58.416-155.486
	C420.47,264.755,384.173,310.236,383.143,389.611z"/>
<path style="fill:#3CAF96;" d="M373.612,435.398c2.699,1.111,5.788-0.178,6.898-2.877l59.789-145.335
	c1.111-2.699-0.178-5.788-2.877-6.898s-5.788,0.178-6.898,2.877l-59.789,145.335C369.624,431.199,370.912,434.287,373.612,435.398z"
	/>
<path style="fill:#147D73;" d="M388.77,384.047c-1.356,3.415-2.799,6.866-4.345,10.355c-1.349,3.049-2.777,6.119-4.28,9.219
	c0,0-52.088-104.631-9.878-183.707c3.752-7.027,13.337-7.438,17.749-1.4c0.78,1.064,1.099,1.859,1.744,3.254
	C402.268,249.21,419.182,307.307,388.77,384.047z"/>
<path style="fill:#1E9682;" d="M388.77,384.047c-1.356,3.415-2.799,6.866-4.345,10.355c-13.491-45.171-24.894-114.435,5.334-172.635
	C402.268,249.21,419.182,307.307,388.77,384.047z"/>
<path style="fill:#2D5A5F;" d="M379.822,406.952c-2.688,0-4.867-2.18-4.867-4.867V257.369c0-2.688,2.178-4.867,4.867-4.867
	s4.867,2.18,4.867,4.867v144.715C384.688,404.772,382.51,406.952,379.822,406.952z"/>
<path style="fill:#5F82C3;" d="M444.188,405.466v17.875c-26.433,30.748-60.175,55.091-98.629,70.283
	c-8.724,3.452-17.688,6.426-26.869,8.901c-7.154-10.825-11.324-23.76-11.324-37.705v-59.354L444.188,405.466L444.188,405.466z"/>
<path style="fill:#6E96DC;" d="M444.188,405.466v17.875c-26.433,30.748-60.175,55.091-98.629,70.283
	c-4.087-8.755-6.364-18.509-6.364-28.804v-59.354L444.188,405.466L444.188,405.466z"/>
<path style="fill:#82AAF0;" d="M464.402,396.419c-6.135,9.431-12.894,18.416-20.214,26.921c-0.073,0.083-0.135,0.156-0.208,0.239
	H302.687c-10.835,0-19.705-8.87-19.705-19.715c0-5.428,2.215-10.346,5.781-13.923c3.577-3.577,8.506-5.792,13.923-5.792h143.477
	C454.378,384.149,461.449,389.244,464.402,396.419z"/>
<path style="fill:#91B9FF;" d="M464.683,397.143H332.798c-8.488,0-15.763-5.432-18.525-12.991h131.89
	C454.646,384.152,461.921,389.584,464.683,397.143z"/>
<g>
</g>
<g>
</g>
<g>
</g>
<g>
</g>
<g>
</g>
<g>
</g>
<g>
</g>
<g>
</g>
<g>
</g>
<g>
</g>
<g>
</g>
<g>
</g>
<g>
</g>
<g>
</g>
<g>
</g>
</svg>
